<svg xmlns="http://www.w3.org/2000/svg" viewBox="0 0 1682.92 1066.82"><defs><style>.cls-1,.cls-2{fill:#e9e9e9;}.cls-2{opacity:0.5;}.cls-3{fill:#b8c0c7;}.cls-4{fill:#43a1f6;}.cls-5{fill:#151f2c;}.cls-6{fill:#ee805f;}.cls-7{fill:#384152;}.cls-8{fill:#2b6eb2;}.cls-9{fill:#de6b4d;}.cls-10{fill:#fff;}.cls-11{fill:#944b34;}.cls-12{fill:#aec3ff;}.cls-13{fill:#2a4a7c;}.cls-14{fill:#ebf3fa;}</style></defs><g id="Layer_2" data-name="Layer 2"><g id="_ëîé_1" data-name="‘ëîé_1"><path class="cls-1" d="M683.72,269.58l25-2.82a5.58,5.58,0,0,1,5.24,2.51q2.16,3.36,4.64,6.59a93.59,93.59,0,0,0,9.88,11,5.49,5.49,0,0,1,1.36,6l-9.57,24.44a5.39,5.39,0,0,0,2.65,6.84l21.5,10.65a5.33,5.33,0,0,0,6.84-1.9l13-20.37a5.35,5.35,0,0,1,6-2.32,97.13,97.13,0,0,0,30.45,3,5.52,5.52,0,0,1,5.53,3.84l4.41,14a5.57,5.57,0,0,0,6.34,3.76l23.35-4.72a4.77,4.77,0,0,0,1.35-.45,5.36,5.36,0,0,0,3-5.47l-2.08-18.64-.52-4.55a95.44,95.44,0,0,0,11.33-7.47,98.25,98.25,0,0,0,13.29-12.31,5.36,5.36,0,0,1,6-1.44l19.68,7.73a5.54,5.54,0,0,0,7-2.71l8.15-16.44,2.32-4.71a5.62,5.62,0,0,0-2-7.24l-17-10.88a5.35,5.35,0,0,1-2.39-5.83A96.63,96.63,0,0,0,891,219.37a16.66,16.66,0,0,0,0-1.73,2.78,2.78,0,0,1,0-.58,5.47,5.47,0,0,1,3.86-4.69l22.76-7.2a4.41,4.41,0,0,0,.74-.3,5.56,5.56,0,0,0,3-6l-4.67-23.29a5.55,5.55,0,0,0-6-4.41l-26,2.94a5.36,5.36,0,0,1-5.38-2.81,97.25,97.25,0,0,0-8.15-12.47c-1.63-2.13-3.34-4.17-5.11-6.13a5.64,5.64,0,0,1-1.07-5.84l9.19-23.5a5.38,5.38,0,0,0-2.62-6.79L850.23,106a5.64,5.64,0,0,0-7.26,2l-10.29,16.11a5.52,5.52,0,0,1-6.44,2.28,97,97,0,0,0-29.36-5.27,5.5,5.5,0,0,1-5.18-3.87l-6.48-20.51a5.68,5.68,0,0,0-6.51-3.85L755.5,97.58a5.44,5.44,0,0,0-4.34,6l.11,1.09,2.43,21.66a5.57,5.57,0,0,1-3,5.59h0A95.49,95.49,0,0,0,736.28,141c-2.46,1.88-4.77,3.87-7,5.93a5.47,5.47,0,0,1-5.74,1.13l-20-7.85a5.65,5.65,0,0,0-7.13,2.73L686,164.18a6.15,6.15,0,0,0-.54,1.86,5.63,5.63,0,0,0,2.52,5.26L701.54,180a5.59,5.59,0,0,1,2.54,4.89,5.93,5.93,0,0,1-.27,1.53,96.26,96.26,0,0,0-4.91,37.81,5.41,5.41,0,0,1-2.91,5.21,4.79,4.79,0,0,1-.87.35l-18.43,5.82a5.53,5.53,0,0,0-3.75,6.33l.11.54,4.53,22.7A5.62,5.62,0,0,0,683.72,269.58Zm159.66-70.87a64.44,64.44,0,0,1,3.39,11.52c1.53,7.85-.06,20.22-3.61,27.4-.37.77-.76,1.52-1.16,2.27-24.41,45.33-88.43,36.32-99-14.83-1.36-6.69-.51-16.43,1.88-23.89a34.16,34.16,0,0,1,1.91-4.71,59.68,59.68,0,0,1,11.91-16.4C785,154.83,828.94,163.09,843.38,198.71Z"/><path class="cls-1" d="M1476.15,182.16c-24-48.28-106.91-15.23-106.91-15.23s-40.74,100.93-57.33,106.43,18-93.09,18-93.09c-33.59,3.36-109.56,60.45-109.56,60.45s26,103.14,8.58,104.39-18.37-92.5-18.37-92.5c-30,15.91-52.38,59-52.38,59-25.17,68,63.44,96.81,63.44,96.81s8.25,35.94-5.84,81.84h0A125.51,125.51,0,0,0,1209.7,513l8.7-1.73q.36-3.71,1-7.22s0,0,0,0,0-.07,0-.1c.33-1.46.81-3.55,1.41-6.09h0c1.62-5.73,2.65-9.93,3.24-12.93v0c4.72-17.91,12-41.46,18.72-47.44a17.06,17.06,0,0,1-2.65-3.62l2.65,3.62c21.22,28.94,96.7,19.47,136.48,2.73s19.38-24.85-6.72-39.4-71.89-.24-87.19-4.94,3.43-16.15,31.49-19.52,47.38,21.53,92.88,16.92,62.84-95.37,62.84-95.37c-28.94,15.69-87.6,9.66-91.84-.55s77.84-25.41,90-31.13S1500.11,230.45,1476.15,182.16Z"/><path class="cls-1" d="M107.49,553.31c-9.75-53,76.46-76.26,76.46-76.26s93.09,56.4,109.67,50.86-70.17-63.75-70.17-63.75c28.9-17.44,123.93-17.26,123.93-17.26s41,98.16,55.68,88.72-40.71-85.07-40.71-85.07c33.54-5.23,77.3,15.88,77.3,15.88C500.54,505.79,446.87,582,446.87,582s14.93,33.71,53.71,62h0A125.49,125.49,0,0,1,519,658.5l-8,3.83c-1.68-1.83-3.39-3.56-5.14-5.17l0,0-.08-.07c-1.14-1-2.77-2.35-4.77-4h0c-4.73-3.61-8.08-6.36-10.34-8.41l0,0c-14.51-11.51-34.41-26-43.41-26.76a16.93,16.93,0,0,0-.05-4.48c0,1.43,0,2.92.05,4.48.35,35.89-65.75,73.54-107.63,84s-30.4-8.28-18.22-35.56S378.77,623,388.2,610s-12.42-10.88-36.9,3.24-25,45.63-64.22,69.2-107.46-38.71-107.46-38.71c32.57-4.77,75.93-44.75,73.2-55.46s-77.54,26.3-90.68,29S117.24,606.32,107.49,553.31Z"/><path class="cls-1" d="M1527.29,893.59c42.43-33.26-6.76-107.78-6.76-107.78s-107.09-19.42-115.85-34.55,94.8-1.27,94.8-1.27c-10.1-32.22-81.41-95-81.41-95s-95.71,46.39-100.48,29.58,86.85-36.76,86.85-36.76c-21.66-26.14-68.42-39.31-68.42-39.31-71.69-10.86-81.93,81.75-81.93,81.75s-33.52,15.37-81.33,10.88h0a125.38,125.38,0,0,0-23.44-1.33l3.45,8.16c2.47-.26,4.9-.42,7.28-.46h.14c1.5,0,3.64.07,6.25.14h0c5.94.43,10.26.59,13.32.55h0c18.49,1,43,3.31,50.25,8.71a17.19,17.19,0,0,1,3-3.33l-3,3.33c-24,26.65.55,98.64,25,134.2s28.26,13.93,37.21-14.57-14.33-70.45-12.84-86.38,16.51.08,25.5,26.88-11.48,50.76,2.27,94.37,106.13,42.19,106.13,42.19c-21.23-25.14-27.23-83.81-18.09-90s40.67,71.07,48.73,81.79S1484.87,926.84,1527.29,893.59Z"/><path class="cls-2" d="M1142.13,269.48s5-99.33,51.41-161.6c6.17-8.28,19.35-4.19,19.85,6.12,0,.18,0,.35,0,.53C1214,132.15,1162.55,210.17,1142.13,269.48Z"/><path class="cls-2" d="M1137.94,298.1s41.82-126.6,124-187A11.73,11.73,0,0,1,1278,113c2.51,3.17,3.9,8.3,1.89,16.6C1274.53,151.76,1183.72,231.26,1137.94,298.1Z"/><path class="cls-2" d="M426.6,430.82s-41.68-72.7-100.34-101.73c-7.79-3.86-16.13,4.25-12.56,12.18l.18.4C320.19,355.12,388.61,394.08,426.6,430.82Z"/><path class="cls-2" d="M440.68,450.72s-79.77-79.11-164.54-93.07a9.87,9.87,0,0,0-11.33,7.57c-.68,3.34.24,7.72,4.91,13.19C282.2,393,380.77,418,440.68,450.72Z"/><path class="cls-3" d="M1346.93,273.67V904.3c0,11-8,20-17.79,20H419.28c-9.82,0-17.79-8.95-17.79-20V273.67c0-11,8-20,17.79-20h909.86C1339,253.69,1346.93,262.63,1346.93,273.67Z"/><path class="cls-4" d="M1302,237.67v51.14H286.54V237.67a19.11,19.11,0,0,1,19.1-19.11h977.21A19.1,19.1,0,0,1,1302,237.67Z"/><path class="cls-1" d="M317.6,253.69a8.9,8.9,0,1,1,8.9,8.89A8.9,8.9,0,0,1,317.6,253.69Z"/><path class="cls-1" d="M352.64,253.69a8.9,8.9,0,1,1,8.9,8.89A8.9,8.9,0,0,1,352.64,253.69Z"/><path class="cls-1" d="M388.57,253.69a8.89,8.89,0,1,1,8.89,8.89A8.89,8.89,0,0,1,388.57,253.69Z"/><path class="cls-1" d="M944.37,163.48l12.16-1.37a2.71,2.71,0,0,1,2.55,1.22c.7,1.09,1.45,2.16,2.26,3.21a44.32,44.32,0,0,0,4.81,5.37,2.68,2.68,0,0,1,.66,3l-4.66,11.9a2.63,2.63,0,0,0,1.29,3.33l10.48,5.19a2.59,2.59,0,0,0,3.32-.93l6.34-9.92a2.6,2.6,0,0,1,2.92-1.13,47.33,47.33,0,0,0,14.82,1.48,2.69,2.69,0,0,1,2.7,1.87l2.14,6.83a2.72,2.72,0,0,0,3.09,1.83l11.37-2.3a2.05,2.05,0,0,0,.66-.22,2.61,2.61,0,0,0,1.46-2.66l-1-9.08-.25-2.21a48.66,48.66,0,0,0,5.52-3.64,47.51,47.51,0,0,0,6.47-6,2.62,2.62,0,0,1,2.91-.7l9.58,3.77a2.71,2.71,0,0,0,3.41-1.32l4-8,1.13-2.3a2.74,2.74,0,0,0-1-3.52l-8.29-5.3A2.6,2.6,0,0,1,1044,149a47.15,47.15,0,0,0,1.26-9.95,8,8,0,0,0,0-.84,1,1,0,0,1,0-.29,2.66,2.66,0,0,1,1.88-2.28l11.08-3.51a1.92,1.92,0,0,0,.36-.14,2.72,2.72,0,0,0,1.47-2.94l-2.28-11.34a2.7,2.7,0,0,0-2.94-2.15L1042.23,117a2.62,2.62,0,0,1-2.62-1.37,46.78,46.78,0,0,0-4-6.07c-.79-1-1.62-2-2.49-3a2.76,2.76,0,0,1-.52-2.84l4.48-11.44a2.62,2.62,0,0,0-1.28-3.31l-10.37-5.12a2.74,2.74,0,0,0-3.53,1l-5,7.85a2.71,2.71,0,0,1-3.14,1.11,47.05,47.05,0,0,0-14.3-2.57A2.68,2.68,0,0,1,997,89.32l-3.16-10a2.78,2.78,0,0,0-3.17-1.88l-11.3,2.27a2.63,2.63,0,0,0-2.11,2.9l0,.53,1.18,10.55A2.71,2.71,0,0,1,977,96.42h0a47.56,47.56,0,0,0-7,4.46c-1.2.92-2.33,1.88-3.42,2.89a2.66,2.66,0,0,1-2.79.55L954,100.49a2.76,2.76,0,0,0-3.47,1.34l-5.1,10.32a3,3,0,0,0-.26.91,2.7,2.7,0,0,0,1.22,2.55l6.63,4.22a2.67,2.67,0,0,1,1.1,3.12,47,47,0,0,0-2.38,18.42,2.67,2.67,0,0,1-1.42,2.54l-.43.17-9,2.83a2.7,2.7,0,0,0-1.83,3.08l0,.27,2.21,11.05A2.75,2.75,0,0,0,944.37,163.48ZM1022.13,129a31.48,31.48,0,0,1,1.65,5.62,24.7,24.7,0,0,1-1.76,13.34c-.18.37-.37.74-.56,1.11-11.89,22.07-43.07,17.68-48.2-7.23a25.57,25.57,0,0,1,.91-11.63,17.18,17.18,0,0,1,.93-2.3,29.15,29.15,0,0,1,5.8-8A25.34,25.34,0,0,1,1022.13,129Z"/><path class="cls-5" d="M237,734.06s1.35-14.76-15.14-14.76c0,0,5,1.36,7.58,4.07,0,0-10.52-6.18-22,3.31s-4.33,33.28-7.81,37.8-17,5.42-15.38,20,43,32.9,40.36,45c0,0,16.21-23.83,4.62-34.7,0,0,5.64,5.32,6.22,11.64,0,0,1.53-12.34-6.33-16.29-7-3.5-12.64-16.28-12-18.57S237,734.06,237,734.06Z"/><path class="cls-6" d="M220.78,804.92s12.32,51,24.41,61.15c7.27,6.12,28.88,20.18,28.88,20.18l-9,3.26s-30-10.12-36.69-18-25.09-47.43-25.09-47.43Z"/><path class="cls-7" d="M105,894.45l.34.6c2.7,4.69,8.88,16.17,15.69,28.73,3.23,6,6.6,12.17,9.8,18,5.51,10.07,10.53,19.05,13.46,23.79s5.16,8.21,6.05,9.56h0a2.34,2.34,0,0,1,.29,1.4,72.85,72.85,0,0,0,.19,12.63c4.11,40.88,31.67,62.78,31.67,62.78l8.2,1.21s-11.6-43-15-67.25a47.35,47.35,0,0,1-.63-9.63c.61-6.33-.51-15.62-2.64-26.29-3.78-19-10.73-42.22-16.76-60.85-.38-1.18-11.91-42.87-11.91-42.87-9.67,8.45-44.95,11.94-44.95,11.94S92.81,872.76,105,894.45Z"/><path class="cls-5" d="M207.9,1063.54H173.69s-.82-5.21,1-9.16,4.15-3.92.31-9.87c2.17,2.24,9.16,3.16,14.11,2.5.6,1,3.9,7.57,5.93,9C197.24,1057.64,207.21,1057.07,207.9,1063.54Z"/><path class="cls-5" d="M105,894.45l.34.6c2.7,4.69,17.28,31.61,24.09,44.18-7.89-32.47-2.41-64.94-2.41-64.94Z"/><path class="cls-5" d="M232.35,732c.22-.89-19.53,8.93-20.54,10-9.26,10.27-6.62,23.69-1.32,23.82,3.4.08,2.74,5.73,2.74,5.73l37.89-16S246.56,729,232.35,732Z"/><path class="cls-4" d="M219.62,797.26s5.77,11.52,5,20.87c0,0-7,11-25,13.75C199.69,831.88,215.19,797.26,219.62,797.26Z"/><path class="cls-7" d="M131.67,860.77l.11-6.4C119,856,87.84,839.14,87.84,839.14S74.5,848,72.68,873.33c-.89,12.37-6.53,64.65-7.15,80.26-.23,5.66-.31,9.69-.33,11.31h0a2.24,2.24,0,0,1-.54,1.32,72.31,72.31,0,0,0-6.91,10.59c-19.45,36.18-9.28,85.35-9.28,85.35L53,1061s16.44-51,27.19-73a46,46,0,0,1,4.87-8.33c4-4.91,8.3-13.24,12.5-23.27C105.49,937.43,131.67,860.77,131.67,860.77Z"/><path class="cls-5" d="M75.67,1063.54H41.47s-.82-5.21,1-9.16,4.39-5.52,3.75-10.12a12.29,12.29,0,0,0,10.66,4.08c.6,1,3.91,6.24,5.93,7.7C65,1057.64,75,1057.07,75.67,1063.54Z"/><path class="cls-4" d="M197.38,839.22c-4.6.79.75,4.44-5.57,5.13-9,1-18.28,1.65-23.15,3.59-1.77.71-3,1.58-3.33,2.7-2.11,6.34-15.46,17.23-15.46,17.23-59.56-2.71-63.39-29.25-63.39-29.25,38.65-37.54,71.54-58,98.71-60.54,6.62-.62,15.53.21,19.72,2.07,9.5,4.24,14.71,17.11,14.71,17.11S214.83,836.25,197.38,839.22Z"/><path class="cls-8" d="M191.81,844.35c-9,1-18.28,1.65-23.15,3.59a95,95,0,0,1,12-52.05S189.84,833.11,191.81,844.35Z"/><path class="cls-6" d="M204.4,782.6c1.7,5.33,7.36,20.5,15.22,14.66-.27-1.13,1.38-4.42,3.33-7.77,2.49-4.27,5.45-8.64,5.45-8.64l-12.8-11.21-.77-.67a32.6,32.6,0,0,1-9.52,10.81A2.56,2.56,0,0,0,204.4,782.6Z"/><path class="cls-9" d="M228.4,780.86s-3,4.36-5.45,8.63c-8-4.9-8-14.75-7.35-19.85Z"/><path class="cls-6" d="M228.75,786.48s-19.32-10.75-12.44-22.68,9-21.35,21.65-15,12.37,12.28,11,16.82S234,789,228.75,786.48Z"/><path class="cls-5" d="M252.27,758.67c-.89-5.29-3.58-5.8-5.45-5.44C239.68,741.43,228,746,228,746a26.36,26.36,0,0,1-15.23,9.15s2.24,4.17,11.48,6.75c2.82.79,6,.31,9.11-.73a51.69,51.69,0,0,1-13.11,4.94c12.17,1.12,23.76-10,25-11.2.56,1.72,1.54,5.33.95,8-.8,3.59-4,10.09-2,10.93C244.15,773.84,253.6,766.62,252.27,758.67Z"/><rect class="cls-4" x="283.28" y="944.83" width="160.37" height="42.06" transform="translate(460.01 -61.6) rotate(25.99)"/><path class="cls-4" d="M237.08,957.53a47.64,47.64,0,0,1-25.79-32.79,10.83,10.83,0,0,1,21.15-4.65,26.24,26.24,0,1,0,18.21-30.77,10.83,10.83,0,0,1-6.14-20.77,47.89,47.89,0,1,1-7.43,89Z"/><path class="cls-4" d="M441,1057a47.89,47.89,0,1,1,65.52-60.66,10.83,10.83,0,0,1-20.14,8,26.24,26.24,0,1,0-13,33.29,10.83,10.83,0,0,1,9.37,19.53A47.66,47.66,0,0,1,441,1057Z"/><rect class="cls-8" x="351.19" y="915.3" width="13.22" height="93.29" rx="4.41" transform="translate(-663.66 862.01) rotate(-64.01)"/><path class="cls-6" d="M217.69,919.13s.42,3.6,1.94,5.46,6,6.36,6,9c0,0-.23,1.17-1.18,1s-4.24-3.48-5.93-3.25c0,0,.9,5.28,1.79,6.77s2.55,7.08,2,8.36-9.5-6.18-12.21-9.83,0-18.45,0-18.45Z"/><path class="cls-6" d="M199.57,790.86s-22.62-1.23-26.64,13,7.54,70.88,10,76.73c4.54,10.65,26.61,41,26.61,41l8.12-2.47s-14.72-46.44-18-51C194.53,860.89,206.34,797,199.57,790.86Z"/><path class="cls-4" d="M168.47,822.82c.06.33,21.4,3.92,34.75-2.85,0,0,11.16-34.94-4.78-33.27s-25.38,6.69-25.78,14.32S168.47,822.82,168.47,822.82Z"/><path class="cls-6" d="M263,863.53a8.86,8.86,0,0,0-3.75.94c-1.24.95-2.62,2.61.14,4,4.15,2.07,12.43,1.15,12.11-.09C270.45,864.44,269,863.25,263,863.53Z"/><path class="cls-6" d="M526.53,307.34a3.87,3.87,0,0,0-.69,4.14v0c1,2.76,4.3,5.84,8.13,8.91.49.4.93.76,1.3,1.09l.3.26.22.21c3.57,3.29,2.23,4,8.65,10.72,7.31,7.62,12.35,7.75,13.78,7.06,1.22-.59-1.25-4.63-4-9.17l-.39-.66c-.37-.6-.73-1.21-1.09-1.82-3.2-5.46-2.38-8-1.62-16.15.62-6.61,10.28-36.9,10.28-36.9l-14-2.42s-4.23,24.12-8.88,27.84c-2.49,2-5.27,2-7.66,3.47l-.5.32A18.62,18.62,0,0,0,526.53,307.34Z"/><path class="cls-5" d="M526.53,307.34a3.87,3.87,0,0,0-.69,4.14v0c1.23,2.75,4.44,5.82,8.14,8.88.49.41.91.78,1.29,1.12l.3.26.22.21c3.57,3.29,2.23,4,8.65,10.72,7.31,7.62,12.35,7.75,13.78,7.06,1.22-.59-1.25-4.63-4-9.17a31.18,31.18,0,0,1-13-9.61c-4.4-5.62-7.34-12.84-10.34-17l-.5.32A18.62,18.62,0,0,0,526.53,307.34Z"/><path class="cls-6" d="M639.6,298.58c.86,4.33,7,3.61,13.93,1.92s5.25.32,15.06-.76,12.78-4.75,13.08-6.21c.27-1.29-4.58-1.75-9.78-2.34l-2-.24c-5.87-.74-10.16-4.52-15.5-7.64-5-2.94-12.58-14.95-12.58-14.95l-13.46,1.07s7.06,10.72,9.79,15.38c1.61,2.75,1.52,6.37,1.32,9.17A17.29,17.29,0,0,0,639.6,298.58Z"/><path class="cls-5" d="M653.53,300.5c6.89-1.68,5.25.32,15.06-.76s12.78-4.75,13.08-6.21c.27-1.29-4.58-1.75-9.78-2.34l0,.09a27.57,27.57,0,0,1-14.05,4.37c-6.65.16-13.7-1.74-18.3-1.67a17.29,17.29,0,0,0,.11,4.6C640.46,302.91,646.63,302.19,653.53,300.5Z"/><path class="cls-5" d="M588,212.56,575.46,246.4,559,290.59a26.55,26.55,0,0,1-8.72-.8,37.35,37.35,0,0,1-8.43-4.11S546.44,238.24,555,211c2.18-7,4.62-12.64,7.32-15.82C575.45,179.59,588,212.56,588,212.56Z"/><path class="cls-7" d="M575.25,158.81c-8.24-2.65-31.74.76-55.34,5.38L515,156l-51-4s-16.83,37.32-7.62,61.09c1.36,3.5,4.05,5.74,8.63,5.81h.75l40.2,0c25.36,0,53.66-17.43,57.33-18.16,6-1.2,8.39,10.79,14.38,23.38S634,279.89,634,279.89s7.74.08,10.94-1.12a10.68,10.68,0,0,0,4.69-3S593.83,164.81,575.25,158.81Z"/><path class="cls-5" d="M498.07.81C490.93-1,481.15.81,479.53,1c-19.41,1.91-25.92,23.55-23,40.34,2.71,15.49-5.15,19.78-14.26,32C424,97.87,436,118.56,450.37,123.9,459,127.1,471,119,471,119c.22.09,37.72-24.57,53.1-38.47C549.72,70.54,516.28,5.5,498.07.81Z"/><path class="cls-6" d="M500.94,71.79c.51,1.8-8,5.1-14.46,3.89-6.09-1.14-12.92-8.28-11.51-9,2.33-1.1,3.9-3.86,2.62-18.76l1.16.13,19.5,2.23s.06,6.07.51,11.76C499.14,66.87,500.11,68.86,500.94,71.79Z"/><path class="cls-9" d="M498.25,50.33s.06,6.07.51,11.76c-10.76.58-17.24-8.75-20-14Z"/><path class="cls-6" d="M502.28,55.42s-25.37,2.5-26.69-13.32-5.47-26.16,10.67-28.42,19.79,3.51,21.52,8.68S508.84,54.36,502.28,55.42Z"/><path class="cls-5" d="M499.56,11.18s-3.2,19.33-17.64,23.91c-10.54,3.35-15.32,1.14-15.32,1.14a42.9,42.9,0,0,0,6.88-16.08,7.74,7.74,0,0,1,5.16-5.9C486.13,11.79,495.2,5.05,499.56,11.18Z"/><path class="cls-5" d="M494.78,15.3s4.78,1.07,9,7.24c2.31,3.37,5,11.87,4.54,15.63,0,0,4.44-17.89-2-24.55C499.44,6.57,494.78,15.3,494.78,15.3Z"/><path class="cls-4" d="M455.25,123.77c.46,1.92.84,3.69,1.16,5.32.52,2.63.87,4.9,1.12,6.9.78,6.24.54,9.94,1.07,14a35,35,0,0,0,1.89,7.61c1.05,2.9,28.62,5.48,44.31,4.44,5-.33,8.77-1,10.12-2.19,5.59-4.86,5,5.83,5.8-45.31.37-25-21.16-47.16-21.16-47.16s-1.72,10.65-23.08-2c-.76-.44-9.17,12-17.27,27.35C450.29,109.64,452.74,113.22,455.25,123.77Z"/><path class="cls-7" d="M575.46,246.4,559,290.59a26.55,26.55,0,0,1-8.72-.8,37.35,37.35,0,0,1-8.43-4.11S546.44,238.24,555,211Z"/><path class="cls-4" d="M499.56,67.36s22,3.73,24.56,13.19,20.41,62.39,20.41,62.39-13.82,4.71-19-.45-18-47.89-18-47.89Z"/><path class="cls-10" d="M496.42,46.09a4.36,4.36,0,0,0,3.87,2.6c2.81,0,3.57-.42,4.1-1a8.26,8.26,0,0,0,1.06-1.74A23.75,23.75,0,0,0,496.42,46.09Z"/><path class="cls-8" d="M457.53,136c.78,6.24.54,9.94,1.07,14,19.95.06,46.63-15.42,46.63-15.42Z"/><path class="cls-8" d="M505.23,121.48s-31.09-.93-36.33-18.6c-5.75-19.41-12.2,8-12.2,8l3.43,17.49h34.11Z"/><path class="cls-3" d="M559.43,73.53l-1.68-4.16A11.8,11.8,0,0,0,546.81,62h-31V165.61H644v-84H571.47A13,13,0,0,1,559.43,73.53Z"/><path class="cls-10" d="M535.15,125v-7.47l26.2-11.48v7.64l-18.3,7.52,18.3,7.52v7.74Z"/><path class="cls-10" d="M588.57,97.12h7l-24,50.12h-7Z"/><path class="cls-10" d="M624.68,117.53V125l-26.2,11.47v-7.63l18.29-7.52-18.29-7.53v-7.74Z"/><path class="cls-6" d="M505.23,125.57l2.25-3.53a18.07,18.07,0,0,0,4.27-2.33c3-2.09,2.58-5.21,4.07-4.88v6.87l-.16,0c6.37,1.7,13.82-.15,14,1.44.41,4.36-3,6.33-5.79,7.69-2.16,1.05-4.62,2.62-8.53,1.4-2.86-.89-7.36-1.79-7.36-1.79Z"/><path class="cls-4" d="M476.48,65.35s-20.18,1.32-25.23,9.19-11.3,47.83-8.68,61.55,67.25-2.62,67.25-2.62l-2.06-11.91s-37.3.22-39.42-4.64C465.51,110.46,476.48,65.35,476.48,65.35Z"/><path class="cls-6" d="M573.89,81.61c-.18.52,3,5.81,7.62,4.89,2.85-.57,6.57-6.73,3.3-8.08C579.37,76.16,574.35,80.21,573.89,81.61Z"/><rect class="cls-5" x="728.74" y="288.39" width="159.16" height="0.77" transform="translate(172.93 865.88) rotate(-61.91)"/><rect class="cls-5" x="1077.69" y="202.04" width="0.77" height="123.94" transform="translate(107.93 803.24) rotate(-42.83)"/><path class="cls-1" d="M1172.56,336a33.71,33.71,0,0,1-6.28,24.69,32.15,32.15,0,0,1-21.5,12.86L768.1,425.3c-19.22,2.64-37-10.1-39.5-28.3a32.45,32.45,0,0,1,7-24.79A36.15,36.15,0,0,1,759,359.09l376.68-51.76C1153.47,304.89,1170.06,317.79,1172.56,336Z"/><path class="cls-4" d="M1172.56,336a33.71,33.71,0,0,1-6.28,24.69,32.15,32.15,0,0,1-21.5,12.86l-68.16,9.37-9.1-66.21,68.16-9.37C1153.47,304.89,1170.06,317.79,1172.56,336Z"/><path class="cls-10" d="M1131.08,354a16.69,16.69,0,0,1-2.56.16,17,17,0,0,1-11.7-29.21h0A17,17,0,1,1,1131.08,354Zm-12.3-27a14.22,14.22,0,1,0,20.12.23,14.24,14.24,0,0,0-20.12-.23Z"/><rect class="cls-10" x="1107.83" y="344.51" width="2.8" height="23.24" transform="translate(588.71 -686.12) rotate(45.66)"/><path class="cls-10" d="M1095.14,369.89h0a2.51,2.51,0,0,1,0-3.54l9.79-9.56a2.51,2.51,0,0,1,3.55,0h0a2.51,2.51,0,0,1,0,3.54l-9.79,9.56A2.5,2.5,0,0,1,1095.14,369.89Z"/><rect class="cls-4" x="458.35" y="688.56" width="84.63" height="7.18" rx="2.97"/><path class="cls-5" d="M499.63,720.43H460.8a2.45,2.45,0,0,1-2.45-2.45h0a2.44,2.44,0,0,1,2.45-2.45h38.83a2.45,2.45,0,0,1,2.45,2.45h0A2.45,2.45,0,0,1,499.63,720.43Z"/><rect class="cls-5" x="458.35" y="705.25" width="73.29" height="4.9" rx="2.28"/><rect class="cls-5" x="538.32" y="705.25" width="68.44" height="4.9" rx="2.2"/><path class="cls-5" d="M548.06,720.43H509.23a2.45,2.45,0,0,1-2.45-2.45h0a2.45,2.45,0,0,1,2.45-2.45h38.83a2.45,2.45,0,0,1,2.45,2.45h0A2.45,2.45,0,0,1,548.06,720.43Z"/><rect class="cls-4" x="554.18" y="688.56" width="84.63" height="7.18" rx="2.97"/><rect class="cls-4" x="458.35" y="742.62" width="84.63" height="7.18" rx="2.97"/><path class="cls-5" d="M499.63,774.49H460.8a2.45,2.45,0,0,1-2.45-2.45h0a2.44,2.44,0,0,1,2.45-2.45h38.83a2.45,2.45,0,0,1,2.45,2.45h0A2.45,2.45,0,0,1,499.63,774.49Z"/><rect class="cls-5" x="458.35" y="759.31" width="73.29" height="4.9" rx="2.28"/><rect class="cls-5" x="538.32" y="759.31" width="68.44" height="4.9" rx="2.2"/><path class="cls-5" d="M548.06,774.49H509.23a2.45,2.45,0,0,1-2.45-2.45h0a2.45,2.45,0,0,1,2.45-2.45h38.83a2.45,2.45,0,0,1,2.45,2.45h0A2.45,2.45,0,0,1,548.06,774.49Z"/><rect class="cls-4" x="554.18" y="742.62" width="84.63" height="7.18" rx="2.97"/><polygon class="cls-7" points="949.06 421.22 904.12 431.68 881.89 472.12 864.92 379.96 949.06 421.22"/><rect class="cls-7" x="908.63" y="420.46" width="8.22" height="47.53" transform="matrix(0.8, -0.6, 0.6, 0.8, -83.02, 641.43)"/><rect class="cls-1" x="801.02" y="485.01" width="126.72" height="126.72" rx="8.1"/><path class="cls-8" d="M817.21,585.23l24.62-44.39a8.1,8.1,0,0,1,13.62-.86l14.2,19.37a8.1,8.1,0,0,0,12.51.67h0a8.1,8.1,0,0,1,12.77,1.07l15.33,23.66a8.1,8.1,0,0,1-6.8,12.5H824.29A8.09,8.09,0,0,1,817.21,585.23Z"/><path class="cls-8" d="M865.8,520.09a9.69,9.69,0,1,1,9.69,9.68A9.69,9.69,0,0,1,865.8,520.09Z"/><path class="cls-1" d="M1081.75,615.14,972.24,630.08a8.1,8.1,0,0,1-9.12-6.93l-14.93-109.5a8.08,8.08,0,0,1,6.93-9.12l109.5-14.94a8.1,8.1,0,0,1,9.12,6.93L1088.68,606A8.1,8.1,0,0,1,1081.75,615.14Z"/><path class="cls-8" d="M976.68,602.73l18.39-47.32a8.11,8.11,0,0,1,13.38-2.69L1025.14,570a8.1,8.1,0,0,0,12.48-1h0a8.1,8.1,0,0,1,12.8-.67l18.38,21.37a8.1,8.1,0,0,1-5,13.31l-78.44,10.7A8.1,8.1,0,0,1,976.68,602.73Z"/><path class="cls-8" d="M1016,531.62a9.68,9.68,0,1,1,10.91,8.29A9.69,9.69,0,0,1,1016,531.62Z"/><rect class="cls-4" x="695.91" y="1006.61" width="63.86" height="54.75"/><rect class="cls-7" x="693.33" y="1004.27" width="68.6" height="4.23"/><rect class="cls-7" x="695.91" y="1021.42" width="63.86" height="17.39"/><path class="cls-4" d="M837.46,1061.4h-60.3a4,4,0,0,1-4-4v-6.69a4,4,0,0,1,4.43-4l60.3,6.68a4,4,0,0,1,3.56,4h0A4,4,0,0,1,837.46,1061.4Z"/><path class="cls-11" d="M1680.87,1066.82,2.05,1066.24a2.05,2.05,0,0,1-2-2v-1a2.05,2.05,0,0,1,2.05-2l1678.82.58a2.05,2.05,0,0,1,2.05,2v1A2.05,2.05,0,0,1,1680.87,1066.82Z"/><path class="cls-5" d="M732.13,616.71h-7a1.15,1.15,0,0,1,0-2.29h6.9a1.17,1.17,0,0,1,1.17,1.15A1.12,1.12,0,0,1,732.13,616.71Zm-13.85,0h-6.91a1.15,1.15,0,0,1,0-2.29h6.91a1.15,1.15,0,0,1,0,2.29Zm-13.81,0h-6.9a1.15,1.15,0,0,1,0-2.29h6.9a1.15,1.15,0,1,1,0,2.29Zm-13.8,0h-6.9a1.15,1.15,0,1,1,0-2.29h6.9a1.15,1.15,0,0,1,0,2.29Zm-13.81,0H670a1.15,1.15,0,0,1,0-2.29h6.9a1.15,1.15,0,1,1,0,2.29Zm-13.8,0h-6.9a1.15,1.15,0,0,1,0-2.29h6.9a1.15,1.15,0,0,1,0,2.29Zm-13.8,0h-6.91a1.15,1.15,0,0,1,0-2.29h6.91a1.15,1.15,0,0,1,0,2.29Zm-13.81,0h-6.9a1.15,1.15,0,0,1,0-2.29h6.9a1.15,1.15,0,1,1,0,2.29Zm-13.8,0h-6.9a1.15,1.15,0,1,1,0-2.29h6.9a1.15,1.15,0,0,1,0,2.29Zm-13.8,0h-6.91a1.15,1.15,0,0,1,0-2.29h6.91a1.15,1.15,0,0,1,0,2.29Zm-13.81,0h-6.9a1.15,1.15,0,0,1,0-2.29H594a1.15,1.15,0,0,1,0,2.29Zm-13.8,0h-6.9a1.15,1.15,0,1,1,0-2.29h6.9a1.15,1.15,0,0,1,0,2.29Zm-13.81,0h-6.9a1.15,1.15,0,0,1,0-2.29h6.9a1.15,1.15,0,1,1,0,2.29Zm-13.8,0h-6.9a1.15,1.15,0,0,1,0-2.29h6.9a1.15,1.15,0,0,1,0,2.29Zm-13.8,0h-6.91a1.15,1.15,0,0,1,0-2.29h6.91a1.15,1.15,0,0,1,0,2.29Zm-13.81,0h-6.9a1.15,1.15,0,0,1,0-2.29H525a1.15,1.15,0,0,1,0,2.29Zm-13.8,0h-6.9a1.15,1.15,0,1,1,0-2.29h6.9a1.15,1.15,0,0,1,0,2.29Zm-13.81,0h-6.15c-.27,0-.55,0-.82,0a1.14,1.14,0,1,1,.15-2.28c.22,0,.44,0,.67,0h6.15a1.15,1.15,0,1,1,0,2.29Zm241.21-2a1.12,1.12,0,0,1-.94-.5,1.14,1.14,0,0,1,.3-1.59,10.54,10.54,0,0,0,3.86-4.77,1.14,1.14,0,0,1,2.11.85,12.71,12.71,0,0,1-4.68,5.81A1.11,1.11,0,0,1,738.62,614.7Zm-254.47-.41a1.16,1.16,0,0,1-.7-.24,12.79,12.79,0,0,1-4.33-6.08,1.14,1.14,0,1,1,2.17-.72,10.42,10.42,0,0,0,3.56,5,1.14,1.14,0,0,1-.7,2Zm259.59-11.67a1.15,1.15,0,0,1-1.15-1.15v-6.9a1.15,1.15,0,0,1,2.29,0v6.9A1.14,1.14,0,0,1,743.74,602.62Zm-264.13-.7a1.15,1.15,0,0,1-1.15-1.15v-6.9a1.15,1.15,0,0,1,2.29,0v6.9A1.15,1.15,0,0,1,479.61,601.92Zm264.13-13.11a1.15,1.15,0,0,1-1.15-1.14v-6.9a1.15,1.15,0,0,1,2.29,0v6.9A1.14,1.14,0,0,1,743.74,588.81Zm-264.13-.7a1.14,1.14,0,0,1-1.15-1.14v-6.9a1.15,1.15,0,1,1,2.29,0V587A1.14,1.14,0,0,1,479.61,588.11ZM743.74,575a1.15,1.15,0,0,1-1.15-1.14V567a1.15,1.15,0,0,1,2.29,0v6.91A1.14,1.14,0,0,1,743.74,575Zm-264.13-.7a1.15,1.15,0,0,1-1.15-1.15v-6.9a1.15,1.15,0,0,1,2.29,0v6.9A1.15,1.15,0,0,1,479.61,574.31ZM743.74,561.2a1.15,1.15,0,0,1-1.15-1.14v-6.9a1.15,1.15,0,0,1,2.29,0v6.9A1.14,1.14,0,0,1,743.74,561.2Zm-264.13-.7a1.14,1.14,0,0,1-1.15-1.14v-6.9a1.15,1.15,0,0,1,2.29,0v6.9A1.14,1.14,0,0,1,479.61,560.5Zm264.13-13.1a1.15,1.15,0,0,1-1.15-1.14v-6.9a1.15,1.15,0,1,1,2.29,0v6.9A1.14,1.14,0,0,1,743.74,547.4Zm-264.13-.7a1.14,1.14,0,0,1-1.15-1.14v-6.91a1.15,1.15,0,0,1,2.29,0v6.91A1.14,1.14,0,0,1,479.61,546.7Zm264.13-13.1a1.15,1.15,0,0,1-1.15-1.15v-6.9a1.15,1.15,0,0,1,2.29,0v6.9A1.14,1.14,0,0,1,743.74,533.6Zm-264.13-.7a1.15,1.15,0,0,1-1.15-1.15v-6.9a1.15,1.15,0,0,1,2.29,0v6.9A1.15,1.15,0,0,1,479.61,532.9Zm264.13-13.11a1.15,1.15,0,0,1-1.15-1.14v-6.9a1.15,1.15,0,0,1,2.29,0v6.9A1.14,1.14,0,0,1,743.74,519.79Zm-264.13-.7a1.14,1.14,0,0,1-1.15-1.14v-6.9a1.15,1.15,0,1,1,2.29,0V518A1.14,1.14,0,0,1,479.61,519.09ZM743.74,506a1.15,1.15,0,0,1-1.15-1.14v-6.91a1.15,1.15,0,0,1,2.29,0v6.91A1.14,1.14,0,0,1,743.74,506Zm-264.13-.7a1.14,1.14,0,0,1-1.15-1.15v-6.9a1.15,1.15,0,0,1,2.29,0v6.9A1.14,1.14,0,0,1,479.61,505.29Zm264.13-13.1a1.16,1.16,0,0,1-1.15-1.15v-6.9a1.15,1.15,0,0,1,2.29,0V491A1.15,1.15,0,0,1,743.74,492.19Zm-264.13-.71a1.14,1.14,0,0,1-1.15-1.14v-6.9a1.15,1.15,0,0,1,2.29,0v6.9A1.14,1.14,0,0,1,479.61,491.48Zm264.13-13.1a1.15,1.15,0,0,1-1.15-1.14v-3.12a10.58,10.58,0,0,0-.54-3.35,1.14,1.14,0,1,1,2.16-.73,12.55,12.55,0,0,1,.67,4.08v3.12A1.14,1.14,0,0,1,743.74,478.38Zm-264.13-.7a1.14,1.14,0,0,1-1.15-1.14v-2.42a12.71,12.71,0,0,1,.94-4.8,1.14,1.14,0,1,1,2.11.85,10.67,10.67,0,0,0-.76,3.95v2.42A1.14,1.14,0,0,1,479.61,477.68ZM739.17,466a1.11,1.11,0,0,1-.69-.24,10.46,10.46,0,0,0-5.74-2.15,1.14,1.14,0,0,1-1.07-1.21,1.13,1.13,0,0,1,1.21-1.07,12.75,12.75,0,0,1,7,2.62,1.14,1.14,0,0,1,.21,1.6A1.16,1.16,0,0,1,739.17,466Zm-254.43-.41a1.14,1.14,0,0,1-.64-2.09,12.68,12.68,0,0,1,7.14-2.19h0a1.14,1.14,0,0,1,0,2.28,10.44,10.44,0,0,0-5.86,1.8A1.18,1.18,0,0,1,484.74,465.61Zm241.16-2H719a1.14,1.14,0,0,1,0-2.28h6.9a1.14,1.14,0,1,1,0,2.28Zm-13.8,0h-6.9a1.14,1.14,0,0,1,0-2.28h6.9a1.14,1.14,0,0,1,0,2.28Zm-13.8,0h-6.91a1.14,1.14,0,0,1,0-2.28h6.91a1.14,1.14,0,1,1,0,2.28Zm-13.81,0h-6.9a1.14,1.14,0,0,1,0-2.28h6.9a1.14,1.14,0,0,1,0,2.28Zm-13.8,0h-6.9a1.14,1.14,0,1,1,0-2.28h6.9a1.14,1.14,0,0,1,0,2.28Zm-13.8,0H650a1.14,1.14,0,0,1,0-2.28h6.91a1.14,1.14,0,0,1,0,2.28Zm-13.81,0h-6.9a1.14,1.14,0,0,1,0-2.28h6.9a1.14,1.14,0,0,1,0,2.28Zm-13.8,0h-6.9a1.14,1.14,0,1,1,0-2.28h6.9a1.14,1.14,0,0,1,0,2.28Zm-13.81,0h-6.9a1.14,1.14,0,0,1,0-2.28h6.9a1.14,1.14,0,1,1,0,2.28Zm-13.8,0h-6.9a1.14,1.14,0,1,1,0-2.28h6.9a1.14,1.14,0,0,1,0,2.28Zm-13.8,0H581a1.14,1.14,0,0,1,0-2.28h6.91a1.14,1.14,0,0,1,0,2.28Zm-13.81,0h-6.9a1.14,1.14,0,0,1,0-2.28h6.9a1.14,1.14,0,1,1,0,2.28Zm-13.8,0h-6.9a1.14,1.14,0,1,1,0-2.28h6.9a1.14,1.14,0,0,1,0,2.28Zm-13.81,0h-6.9a1.14,1.14,0,0,1,0-2.28h6.9a1.14,1.14,0,1,1,0,2.28Zm-13.8,0h-6.9a1.14,1.14,0,0,1,0-2.28h6.9a1.14,1.14,0,0,1,0,2.28Zm-13.8,0h-6.91a1.14,1.14,0,0,1,0-2.28h6.91a1.14,1.14,0,0,1,0,2.28Zm-13.81,0h-6.9a1.14,1.14,0,0,1,0-2.28H505a1.14,1.14,0,0,1,0,2.28Z"/><path class="cls-5" d="M1124.47,808.26h-6.16a1,1,0,0,1,0-2h6.12a1,1,0,0,1,1,1A1,1,0,0,1,1124.47,808.26Zm-12.27,0h-6.12a1,1,0,0,1,0-2h6.12a1,1,0,0,1,0,2Zm-12.23,0h-6.11a1,1,0,1,1,0-2H1100a1,1,0,0,1,0,2Zm-12.23,0h-6.11a1,1,0,0,1,0-2h6.11a1,1,0,0,1,0,2Zm-12.23,0h-6.11a1,1,0,0,1,0-2h6.11a1,1,0,0,1,0,2Zm-12.23,0h-6.11a1,1,0,0,1,0-2h6.11a1,1,0,1,1,0,2Zm-12.22,0h-6.12a1,1,0,0,1,0-2h6.12a1,1,0,0,1,0,2Zm-12.23,0h-6.12a1,1,0,0,1,0-2h6.12a1,1,0,0,1,0,2Zm-12.23,0h-6.11a1,1,0,1,1,0-2h6.11a1,1,0,0,1,0,2Zm-12.23,0h-6.16a1,1,0,0,1-1-1.06,1,1,0,0,1,1.06-1h6.06a1,1,0,0,1,0,2Zm114.06-3.88h0a1,1,0,0,1-1-1v-6.08a1,1,0,0,1,2,0v6.15A1,1,0,0,1,1128.43,804.38Zm-124-.16a1,1,0,0,1-1-1V797.1a1,1,0,1,1,2,0v6.11A1,1,0,0,1,1004.46,804.22Zm124-12.06a1,1,0,0,1-1-1V785a1,1,0,0,1,2,0v6.11A1,1,0,0,1,1128.43,792.16Zm-124-.17a1,1,0,0,1-1-1v-6.11a1,1,0,1,1,2,0V791A1,1,0,0,1,1004.46,792Zm124-12.06a1,1,0,0,1-1-1V772.8a1,1,0,0,1,2,0v6.12A1,1,0,0,1,1128.43,779.93Zm-124-.17a1,1,0,0,1-1-1v-6a1.21,1.21,0,0,1,0-.19,1,1,0,0,1,1-1,1,1,0,0,1,1,1v6.07A1,1,0,0,1,1004.46,779.76Zm120.15-10h-6.11a1,1,0,0,1,0-2h6.16a1,1,0,0,1-.05,2Zm-12.23,0h-6.11a1,1,0,0,1,0-2h6.11a1,1,0,1,1,0,2Zm-12.22,0H1094a1,1,0,0,1,0-2h6.12a1,1,0,0,1,0,2Zm-12.23,0h-6.12a1,1,0,0,1,0-2h6.12a1,1,0,0,1,0,2Zm-12.23,0h-6.11a1,1,0,1,1,0-2h6.11a1,1,0,0,1,0,2Zm-12.23,0h-6.11a1,1,0,0,1,0-2h6.11a1,1,0,0,1,0,2Zm-12.23,0h-6.11a1,1,0,1,1,0-2h6.11a1,1,0,0,1,0,2Zm-12.23,0h-6.11a1,1,0,0,1,0-2H1039a1,1,0,1,1,0,2Zm-12.22,0h-6.12a1,1,0,0,1,0-2h6.12a1,1,0,0,1,0,2Zm-12.23,0h-6.09a1,1,0,0,1-1-1,1,1,0,0,1,1-1h6.12a1,1,0,1,1,0,2Z"/><path class="cls-5" d="M687.75,443.38h-6.81a1.15,1.15,0,0,1,0-2.29h6.77a1.16,1.16,0,0,1,1.16,1.14A1.12,1.12,0,0,1,687.75,443.38Zm-13.57,0h-6.77a1.15,1.15,0,0,1,0-2.29h6.77a1.15,1.15,0,0,1,0,2.29Zm-13.54,0h-6.76a1.15,1.15,0,0,1,0-2.29h6.76a1.15,1.15,0,1,1,0,2.29Zm-13.53,0h-6.76a1.15,1.15,0,1,1,0-2.29h6.76a1.15,1.15,0,1,1,0,2.29Zm-13.53,0h-6.76a1.15,1.15,0,1,1,0-2.29h6.76a1.15,1.15,0,0,1,0,2.29Zm-13.53,0h-6.77a1.15,1.15,0,0,1,0-2.29h6.77a1.15,1.15,0,0,1,0,2.29Zm-13.53,0h-6.77a1.15,1.15,0,0,1,0-2.29h6.77a1.15,1.15,0,0,1,0,2.29Zm-13.41-.73a1.15,1.15,0,0,1-.56-.15,6.78,6.78,0,0,1-3.43-5.89v-.83a1.14,1.14,0,0,1,2.28,0v.83a4.48,4.48,0,0,0,2.28,3.9,1.14,1.14,0,0,1-.57,2.14ZM693,439.74a1.16,1.16,0,0,1-1.07-1.55,4.42,4.42,0,0,0,.28-1.58v-4.74a1.15,1.15,0,0,1,2.29,0v4.74A7,7,0,0,1,694,439,1.15,1.15,0,0,1,693,439.74Zm-102.71-9.58a1.14,1.14,0,0,1-1.14-1.14v-6.77a1.14,1.14,0,0,1,2.28,0V429A1.14,1.14,0,0,1,590.26,430.16Zm103.07-3.91a1.15,1.15,0,0,1-1.15-1.14v-6.77a1.15,1.15,0,0,1,2.29,0v6.77A1.14,1.14,0,0,1,693.33,426.25Zm-103.07-9.62a1.14,1.14,0,0,1-1.14-1.14v-6.77a1.14,1.14,0,1,1,2.28,0v6.77A1.14,1.14,0,0,1,590.26,416.63Zm103.07-3.91a1.15,1.15,0,0,1-1.15-1.15v-6.76a1.15,1.15,0,0,1,2.29,0v6.76A1.14,1.14,0,0,1,693.33,412.72ZM590.26,403.1a1.14,1.14,0,0,1-1.14-1.14v-6.77a1.14,1.14,0,1,1,2.28,0V402A1.14,1.14,0,0,1,590.26,403.1Zm103.07-3.91a1.16,1.16,0,0,1-1.15-1.15v-6.76a1.15,1.15,0,1,1,2.29,0V398A1.15,1.15,0,0,1,693.33,399.19Zm-103.07-9.62a1.15,1.15,0,0,1-1.14-1.15v-6.76a1.14,1.14,0,1,1,2.28,0v6.76A1.15,1.15,0,0,1,590.26,389.57Zm103.07-3.92a1.15,1.15,0,0,1-1.15-1.14v-6.76a1.15,1.15,0,1,1,2.29,0v6.76A1.14,1.14,0,0,1,693.33,385.65ZM590.26,376a1.14,1.14,0,0,1-1.14-1.14v-6.76a1.14,1.14,0,1,1,2.28,0v6.76A1.14,1.14,0,0,1,590.26,376Zm103.07-3.91a1.15,1.15,0,0,1-1.15-1.14v-6.77a1.15,1.15,0,0,1,2.29,0V371A1.14,1.14,0,0,1,693.33,372.12ZM590.26,362.5a1.14,1.14,0,0,1-1.14-1.14v-4.72a6.81,6.81,0,0,1,.44-2.41,1.14,1.14,0,0,1,1.47-.66,1.16,1.16,0,0,1,.67,1.48,4.28,4.28,0,0,0-.3,1.59v4.72A1.14,1.14,0,0,1,590.26,362.5Zm103.07-3.91a1.15,1.15,0,0,1-1.15-1.14v-.81a4.49,4.49,0,0,0-2.28-3.91,1.14,1.14,0,0,1-.44-1.55,1.15,1.15,0,0,1,1.56-.44,6.78,6.78,0,0,1,3.45,5.9v.81A1.14,1.14,0,0,1,693.33,358.59Zm-9.51-6.43h-6.77a1.14,1.14,0,1,1,0-2.28h6.77a1.14,1.14,0,1,1,0,2.28Zm-13.54,0h-6.76a1.14,1.14,0,1,1,0-2.28h6.76a1.14,1.14,0,1,1,0,2.28Zm-13.53,0H650a1.14,1.14,0,1,1,0-2.28h6.76a1.14,1.14,0,1,1,0,2.28Zm-13.53,0h-6.76a1.14,1.14,0,1,1,0-2.28h6.76a1.14,1.14,0,1,1,0,2.28Zm-13.53,0h-6.77a1.14,1.14,0,1,1,0-2.28h6.77a1.14,1.14,0,1,1,0,2.28Zm-13.53,0h-6.77a1.14,1.14,0,1,1,0-2.28h6.77a1.14,1.14,0,1,1,0,2.28Zm-13.53,0h-6.75a1.15,1.15,0,0,1-1.15-1.14,1.13,1.13,0,0,1,1.13-1.14h6.77a1.14,1.14,0,1,1,0,2.28Z"/><path class="cls-5" d="M1124.47,864.69h-6.16a1,1,0,0,1,0-2h6.12a1,1,0,0,1,1,1A1,1,0,0,1,1124.47,864.69Zm-12.27,0h-6.12a1,1,0,0,1,0-2h6.12a1,1,0,0,1,0,2Zm-12.23,0h-6.11a1,1,0,1,1,0-2H1100a1,1,0,0,1,0,2Zm-12.23,0h-6.11a1,1,0,0,1,0-2h6.11a1,1,0,0,1,0,2Zm-12.23,0h-6.11a1,1,0,0,1,0-2h6.11a1,1,0,0,1,0,2Zm-12.23,0h-6.11a1,1,0,0,1,0-2h6.11a1,1,0,1,1,0,2Zm-12.22,0h-6.12a1,1,0,0,1,0-2h6.12a1,1,0,0,1,0,2Zm-12.23,0h-6.12a1,1,0,0,1,0-2h6.12a1,1,0,0,1,0,2Zm-12.23,0h-6.11a1,1,0,1,1,0-2h6.11a1,1,0,0,1,0,2Zm-12.23,0h-6.16a1,1,0,0,1-1-1.06,1,1,0,0,1,1.06-1h6.06a1,1,0,0,1,0,2Zm114.06-3.88h0a1,1,0,0,1-1-1v-6.08a1,1,0,1,1,2,0v6.14A1,1,0,0,1,1128.43,860.81Zm-124-.16a1,1,0,0,1-1-1v-6.12a1,1,0,0,1,2,0v6.12A1,1,0,0,1,1004.46,860.65Zm124-12.06a1,1,0,0,1-1-1v-6.11a1,1,0,1,1,2,0v6.11A1,1,0,0,1,1128.43,848.59Zm-124-.17a1,1,0,0,1-1-1V841.3a1,1,0,1,1,2,0v6.11A1,1,0,0,1,1004.46,848.42Zm124-12.06a1,1,0,0,1-1-1v-6.12a1,1,0,1,1,2,0v6.12A1,1,0,0,1,1128.43,836.36Zm-124-.17a1,1,0,0,1-1-1v-6a1.21,1.21,0,0,1,0-.19,1,1,0,0,1,1-1,1,1,0,0,1,1,1.05v6.07A1,1,0,0,1,1004.46,836.19Zm120.15-10h-6.11a1,1,0,0,1,0-2h6.16a1,1,0,0,1-.05,2Zm-12.23,0h-6.11a1,1,0,0,1,0-2h6.11a1,1,0,1,1,0,2Zm-12.22,0H1094a1,1,0,0,1,0-2h6.12a1,1,0,0,1,0,2Zm-12.23,0h-6.12a1,1,0,0,1,0-2h6.12a1,1,0,0,1,0,2Zm-12.23,0h-6.11a1,1,0,1,1,0-2h6.11a1,1,0,0,1,0,2Zm-12.23,0h-6.11a1,1,0,0,1,0-2h6.11a1,1,0,0,1,0,2Zm-12.23,0h-6.11a1,1,0,0,1,0-2h6.11a1,1,0,0,1,0,2Zm-12.23,0h-6.11a1,1,0,0,1,0-2H1039a1,1,0,1,1,0,2Zm-12.22,0h-6.12a1,1,0,0,1,0-2h6.12a1,1,0,0,1,0,2Zm-12.23,0h-6.09a1,1,0,0,1-1-1,1,1,0,0,1,1-1h6.12a1,1,0,0,1,0,2Z"/><path class="cls-5" d="M642,822.18h-6.11a1,1,0,0,1,0-2h6.07a1,1,0,0,1,1,1A1,1,0,0,1,642,822.18Zm-12.17,0h-6.06a1,1,0,0,1,0-2h6.06a1,1,0,1,1,0,2Zm-12.12,0h-6.06a1,1,0,0,1,0-2h6.06a1,1,0,0,1,0,2Zm-12.12,0h-6.06a1,1,0,1,1,0-2h6.06a1,1,0,0,1,0,2Zm-12.13,0h-6.06a1,1,0,0,1,0-2h6.06a1,1,0,1,1,0,2Zm-12.12,0h-6.06a1,1,0,0,1,0-2h6.06a1,1,0,0,1,0,2Zm-12.12,0h-6.06a1,1,0,0,1,0-2h6.06a1,1,0,0,1,0,2Zm-12.12,0H551a1,1,0,1,1,0-2h6.06a1,1,0,0,1,0,2Zm-12.13,0h-6.06a1,1,0,0,1,0-2h6.06a1,1,0,1,1,0,2Zm-12.12,0h-6.06a1,1,0,0,1,0-2h6.06a1,1,0,0,1,0,2Zm-12.12,0h-6.06a1,1,0,1,1,0-2h6.06a1,1,0,0,1,0,2Zm-12.12,0H502.5a1,1,0,0,1,0-2h6.07a1,1,0,0,1,0,2Zm-12.13,0h-6.06a1,1,0,0,1,0-2h6.06a1,1,0,0,1,0,2Zm-12.12,0h-6.06a1,1,0,0,1,0-2h6.06a1,1,0,0,1,0,2Zm-12.12,0h-6.06a1,1,0,1,1,0-2h6.06a1,1,0,0,1,0,2Zm-12.13,0h-4.83a11.9,11.9,0,0,1-1.34-.08A1,1,0,0,1,453,821a1,1,0,0,1,1.12-.88,10.32,10.32,0,0,0,1.11.06h4.83a1,1,0,1,1,0,2Zm187.6-1.75a1,1,0,0,1-.84-.45,1,1,0,0,1,.27-1.41,9.21,9.21,0,0,0,3.42-4.16,1,1,0,0,1,1.33-.55,1,1,0,0,1,.54,1.32,11.26,11.26,0,0,1-4.16,5.07A1,1,0,0,1,647.67,820.43Zm-199.13-.72a1,1,0,0,1-.65-.24,11.32,11.32,0,0,1-3.56-5.51,1,1,0,0,1,1.95-.56,9.22,9.22,0,0,0,2.92,4.53,1,1,0,0,1-.66,1.78Zm203.7-9.86a1,1,0,0,1-1-1v-6.06a1,1,0,0,1,2,0v6.06A1,1,0,0,1,652.24,809.85Zm-207.33-1.18a1,1,0,0,1-1-1V801.6a1,1,0,1,1,2,0v6.06A1,1,0,0,1,444.91,808.67Zm207.33-10.94a1,1,0,0,1-1-1v-6.07a1,1,0,0,1,2,0v6.07A1,1,0,0,1,652.24,797.73Zm-207.33-1.18a1,1,0,0,1-1-1v-6.06a1,1,0,0,1,2,0v6.06A1,1,0,0,1,444.91,796.55Zm207.33-10.94a1,1,0,0,1-1-1v-6.06a1,1,0,0,1,2,0v6.06A1,1,0,0,1,652.24,785.61Zm-207.33-1.19a1,1,0,0,1-1-1v-6.06a1,1,0,0,1,2,0v6.06A1,1,0,0,1,444.91,784.42Zm207.33-10.94a1,1,0,0,1-1-1v-6.06a1,1,0,0,1,2,0v6.06A1,1,0,0,1,652.24,773.48ZM444.91,772.3a1,1,0,0,1-1-1v-6.06a1,1,0,0,1,2,0v6.06A1,1,0,0,1,444.91,772.3Zm207.33-10.94a1,1,0,0,1-1-1v-6.06a1,1,0,1,1,2,0v6.06A1,1,0,0,1,652.24,761.36Zm-207.33-1.18a1,1,0,0,1-1-1v-6.06a1,1,0,1,1,2,0v6.06A1,1,0,0,1,444.91,760.18Zm207.33-10.94a1,1,0,0,1-1-1v-6.06a1,1,0,0,1,2,0v6.06A1,1,0,0,1,652.24,749.24Zm-207.33-1.18a1,1,0,0,1-1-1V741a1,1,0,0,1,2,0V747A1,1,0,0,1,444.91,748.06Zm207.33-10.95a1,1,0,0,1-1-1V730a1,1,0,0,1,2,0v6.06A1,1,0,0,1,652.24,737.11Zm-207.33-1.18a1,1,0,0,1-1-1v-6.06a1,1,0,0,1,2,0v6.06A1,1,0,0,1,444.91,735.93ZM652.24,725a1,1,0,0,1-1-1v-6.06a1,1,0,0,1,2,0V724A1,1,0,0,1,652.24,725Zm-207.33-1.18a1,1,0,0,1-1-1v-6.06a1,1,0,1,1,2,0v6.06A1,1,0,0,1,444.91,723.81Zm207.33-10.94a1,1,0,0,1-1-1V705.8a1,1,0,1,1,2,0v6.06A1,1,0,0,1,652.24,712.87Zm-207.33-1.18a1,1,0,0,1-1-1v-6.07a1,1,0,0,1,2,0v6.07A1,1,0,0,1,444.91,711.69Zm207.33-10.94a1,1,0,0,1-1-1v-6.06a1,1,0,0,1,2,0v6.06A1,1,0,0,1,652.24,700.75Zm-207.33-1.19a1,1,0,0,1-1-1v-6.06a1,1,0,0,1,2,0v6.06A1,1,0,0,1,444.91,699.56Zm207.33-10.94a1,1,0,0,1-1-1v-6.06a1,1,0,0,1,2,0v6.06A1,1,0,0,1,652.24,688.62Zm-207.33-1.18a1,1,0,0,1-1-1v-6.06a1,1,0,0,1,2,0v6.06A1,1,0,0,1,444.91,687.44Zm206.93-10.9a1,1,0,0,1-1-.73,9.31,9.31,0,0,0-2.93-4.53,1,1,0,0,1-.12-1.42,1,1,0,0,1,1.43-.12,11.32,11.32,0,0,1,3.56,5.51,1,1,0,0,1-.69,1.25A.9.9,0,0,1,651.84,676.54ZM445.7,675.43a1.09,1.09,0,0,1-.39-.08,1,1,0,0,1-.54-1.33,11.31,11.31,0,0,1,4.17-5.06,1,1,0,1,1,1.12,1.68,9.38,9.38,0,0,0-3.42,4.16A1,1,0,0,1,445.7,675.43Zm197.42-6.28H643a9.77,9.77,0,0,0-1.08-.06h-4.86a1,1,0,1,1,0-2h4.86a11.51,11.51,0,0,1,1.31.08,1,1,0,0,1,.89,1.12A1,1,0,0,1,643.12,669.15ZM631,669.08h-6.07a1,1,0,0,1,0-2H631a1,1,0,0,1,0,2Zm-12.13,0h-6.06a1,1,0,0,1,0-2h6.06a1,1,0,0,1,0,2Zm-12.12,0h-6.06a1,1,0,0,1,0-2h6.06a1,1,0,0,1,0,2Zm-12.12,0h-6.06a1,1,0,1,1,0-2h6.06a1,1,0,0,1,0,2Zm-12.13,0h-6.06a1,1,0,0,1,0-2h6.06a1,1,0,1,1,0,2Zm-12.12,0h-6.06a1,1,0,0,1,0-2h6.06a1,1,0,0,1,0,2Zm-12.12,0H552.2a1,1,0,1,1,0-2h6.06a1,1,0,0,1,0,2Zm-12.12,0h-6.07a1,1,0,0,1,0-2h6.07a1,1,0,0,1,0,2Zm-12.13,0H528a1,1,0,0,1,0-2H534a1,1,0,1,1,0,2Zm-12.12,0h-6.06a1,1,0,0,1,0-2h6.06a1,1,0,0,1,0,2Zm-12.12,0h-6.06a1,1,0,1,1,0-2h6.06a1,1,0,0,1,0,2Zm-12.13,0h-6.06a1,1,0,0,1,0-2h6.06a1,1,0,1,1,0,2Zm-12.12,0h-6.06a1,1,0,0,1,0-2h6.06a1,1,0,0,1,0,2Zm-12.12,0h-6.06a1,1,0,0,1,0-2h6.06a1,1,0,0,1,0,2Zm-12.12,0h-6a1,1,0,0,1-1-1,1,1,0,0,1,1-1h6.07a1,1,0,0,1,0,2Z"/><rect class="cls-1" x="446.32" y="483.29" width="264.13" height="153.1" rx="9.57"/><path class="cls-4" d="M548.58,529.47V590.2a4.77,4.77,0,0,0,7.39,4l46.16-30.37a4.77,4.77,0,0,0,0-8L556,525.48A4.77,4.77,0,0,0,548.58,529.47Z"/><path class="cls-12" d="M460.05,622.57a4.74,4.74,0,1,1,4.74,4.74A4.74,4.74,0,0,1,460.05,622.57Z"/><path class="cls-12" d="M680.47,623.85H466.06a1.27,1.27,0,0,1-1.27-1.28h0a1.27,1.27,0,0,1,1.27-1.27H680.47a1.27,1.27,0,0,1,1.27,1.27h0A1.27,1.27,0,0,1,680.47,623.85Z"/><rect class="cls-1" x="693.33" y="668.06" width="136.65" height="203.98"/><path class="cls-7" d="M774.77,733.6H772.9v-8.4a5.47,5.47,0,0,1,5.47-5.47h23.12A3.61,3.61,0,0,0,805,717l3.65-13.9a3.6,3.6,0,0,0-3.48-4.51H775v-1.87h30.16a5.47,5.47,0,0,1,5.29,6.86l-3.66,13.9a5.47,5.47,0,0,1-5.28,4.08H778.37a3.6,3.6,0,0,0-3.6,3.6Z"/><rect class="cls-4" x="750.7" y="689.81" width="51.87" height="15.77" rx="6.07"/><path class="cls-7" d="M773.84,768.49h0a5.15,5.15,0,0,1-5.15-5.14V732.2a5.15,5.15,0,0,1,5.15-5.14h0A5.14,5.14,0,0,1,779,732.2v31.15A5.14,5.14,0,0,1,773.84,768.49Z"/><path class="cls-6" d="M970.55,836.05s3.54,10.89,3.23,13.38-2.52,11-4.11,13.18-2.36-8.87-3.62-10.53-.26,4.16-1.14,4.7-2.73-4.29-3.52-6,1.93-8,1.94-12.35S970.55,836.05,970.55,836.05Z"/><path class="cls-5" d="M887.38,749.53c-1-12.49,12.58-21,23.3-14.56l.65.41c16,10.32,50.64,58.49,53,63.32s9.42,43.21,9.42,43.21-8.69,3.18-12.75-.12c0,0-14.09-36.4-16.17-38.22S888.5,771.3,888,759.88C887.91,756.86,887.67,753.24,887.38,749.53Z"/><path class="cls-13" d="M984.22,1031.47s6.46,5.9,5.2,10.1-7.1,7-7.89,12.11-3.94,7.92-6.78,7.92H961.22s-2.09-3.61,3-4.69,7-7.11,6.63-12.7a98,98,0,0,1,.47-13l10.73-2.48Z"/><path class="cls-13" d="M904.88,1046.73s1.17,13.44-1.67,14.83l-36.33-.07s0-4.2,5.83-5.13,16.09-4.35,17.82-11.95S904.88,1046.73,904.88,1046.73Z"/><path class="cls-4" d="M874.21,857s1.92,23.55,4.17,51.84c3.06,38.44,6.74,85.66,7.11,94.61.63,15.53,3.15,40.38,3.15,40.38s6,5.9,18,3.41c0,0,10.69-35.47,13.74-73,0-.62.09-1.24.14-1.86,2.84-38.2,7.25-118.65,7.25-118.65Z"/><path class="cls-8" d="M874.21,857s1.92,23.55,4.17,51.84l42,65.41c0-.62.09-1.24.14-1.86,2.84-38.2,7.25-118.65,7.25-118.65Z"/><path class="cls-4" d="M883,859.82s34.54,85.26,57.25,125.32S970,1036.39,970,1036.39s13-5.12,14.2-8.62c0,0-8.69-77.35-23.9-96.2-8.59-10.66-18.69-42.63-19.16-53.81s-3.08-33.31-3.08-33.31Z"/><path class="cls-6" d="M912.74,731.93s-23.14,11.74-36.69,7.82a31.65,31.65,0,0,1,9-7.47c-.52-2.7-.93-5-1.17-7a66.93,66.93,0,0,1-.72-7.19l8.88-7.26,8.41-7C900.13,722.94,912.74,731.93,912.74,731.93Z"/><path class="cls-7" d="M935.73,851.19c-9.34,5.66-18.19,9.91-28.54,12.3-12.21,2.89-27.22,2-32.24,2.8a2.06,2.06,0,0,1-1.46-.37c-.4-.2-2.61-15.09-4.83-33.89-.1-.76-.2-1.52-.25-2.29l0-.25c-.86-7.35-1.62-15.07-2.27-22.81-.54-6-1-12-1.29-17.57-.38-7-.54-13.42-.38-18.71.07-2.42.21-4.59.43-6.48,1.32-11,6.56-18.82,11.49-24.67l4.09-4.65A22.48,22.48,0,0,0,894.61,731c5-3.29,10.39-6.83,11.41-6.24,7.66,4.19,13.89,15,18.35,29.39a163.54,163.54,0,0,1,5.76,27.54c.41,3.08.75,6.24,1,9.38.05.58.1,1.16.14,1.74.6,8.59,1.58,16.65,2.67,23.85,1.47,9.7,3.13,17.83,4.31,23.55.59,2.92,1,5.17,1.31,6.78C939.81,848.39,937,850.41,935.73,851.19Z"/><path class="cls-9" d="M900.72,711.14S895,722,883.85,725.26a66.93,66.93,0,0,1-.72-7.19l8.88-7.26Z"/><path class="cls-6" d="M879,717.85s22.36,3.2,24.18-10.54,5.93-22.59-8.27-25.22-17.67,2.26-19.41,6.71S873.25,716.66,879,717.85Z"/><path class="cls-5" d="M910.77,680.14c.19-.24.66-.44,1.69-.51a4.12,4.12,0,0,0-2-.51c-.24-1.44-1.06-4-3.56-4.56a3.14,3.14,0,0,1,1.56,2.22c-2.94-2.9-9.15-4.93-26.21-3.24-22.48,2.22-14.77,16.49-11.82,18.15s10.19-3.19,15.63-2.87,6.62,8.15,8.49,9.19,1.1-.85,3.57-2,2.79,2.95,2.12,5.65,2.83,6.18,2.83,6.18l3.39-3.8c3.38-3.8,6.33-19.65,4.69-23C911.06,680.73,910.91,680.44,910.77,680.14Z"/><path class="cls-5" d="M903.67,771.62S884.81,786,864.82,789.11c-.38-7-.54-13.42-.38-18.71Z"/><path class="cls-6" d="M787.88,753.11c-.3-.32-4.15-13.17-10.79-12.23-4.34.61-11.43,3.12-9.55,8.84.74,2.24,14,10,14,10Z"/><path class="cls-7" d="M906,743.9c10.75,6.44,9.88,22.46-1.62,27.43l-.71.3c-17.7,7.1-77,7.43-82.33,6.57s-40.68-17.34-40.68-17.34,2.44-8.92,7.48-10.32c0,0,37.84,9.58,40.53,8.94s58.93-27.27,68.51-21C899.71,740.09,902.81,742,906,743.9Z"/><path class="cls-14" d="M1305,322h-47.21a3.62,3.62,0,0,1-3.61-3.61h0a3.61,3.61,0,0,1,3.61-3.61H1305a3.62,3.62,0,0,1,3.61,3.61h0A3.63,3.63,0,0,1,1305,322Z"/><path class="cls-14" d="M1305,336h-47.21a3.61,3.61,0,0,1-3.61-3.61h0a3.61,3.61,0,0,1,3.61-3.6H1305a3.62,3.62,0,0,1,3.61,3.6h0A3.62,3.62,0,0,1,1305,336Z"/><path class="cls-14" d="M1305,350.5h-47.21a3.61,3.61,0,0,1-3.61-3.6h0a3.61,3.61,0,0,1,3.61-3.61H1305a3.62,3.62,0,0,1,3.61,3.61h0A3.62,3.62,0,0,1,1305,350.5Z"/><path class="cls-14" d="M1120.11,690.92h-112.4a4.8,4.8,0,0,1-4.79-4.78h0a4.81,4.81,0,0,1,4.79-4.79h112.4a4.8,4.8,0,0,1,4.78,4.79h0A4.79,4.79,0,0,1,1120.11,690.92Z"/><path class="cls-14" d="M570.68,362.53H458.29a4.79,4.79,0,0,1-4.79-4.78h0a4.8,4.8,0,0,1,4.79-4.79H570.68a4.81,4.81,0,0,1,4.79,4.79h0A4.8,4.8,0,0,1,570.68,362.53Z"/><path class="cls-14" d="M1120.11,738.39h-112.4a4.81,4.81,0,0,1-4.79-4.79h0a4.8,4.8,0,0,1,4.79-4.78h112.4a4.79,4.79,0,0,1,4.78,4.78h0A4.8,4.8,0,0,1,1120.11,738.39Z"/><path class="cls-14" d="M1120.11,714.65H985.68a4.79,4.79,0,0,1-4.79-4.78h0a4.8,4.8,0,0,1,4.79-4.79h134.43a4.8,4.8,0,0,1,4.78,4.79h0A4.79,4.79,0,0,1,1120.11,714.65Z"/><rect class="cls-14" x="470.26" y="383.05" width="70.71" height="9.57" rx="3.64"/><path class="cls-14" d="M449.26,387.83a4.78,4.78,0,1,1,4.78,4.79A4.78,4.78,0,0,1,449.26,387.83Z"/><rect class="cls-14" x="470.26" y="402.09" width="83.05" height="9.57" rx="3.95"/><path class="cls-14" d="M449.26,406.87a4.78,4.78,0,1,1,4.78,4.79A4.78,4.78,0,0,1,449.26,406.87Z"/><rect class="cls-14" x="470.26" y="422.76" width="70.71" height="9.57" rx="3.64"/><path class="cls-14" d="M449.26,427.54a4.78,4.78,0,1,1,4.78,4.79A4.78,4.78,0,0,1,449.26,427.54Z"/><path class="cls-5" d="M652.69,403.33a16.38,16.38,0,0,1-2.53.16,16.88,16.88,0,0,1-11.6-28.95h0a16.88,16.88,0,1,1,14.13,28.79Zm-12.19-26.8a14.11,14.11,0,0,0-.23,19.93,14.1,14.1,0,0,0,19.94.24,14.1,14.1,0,1,0-19.71-20.17Z"/><rect class="cls-5" x="629.65" y="393.97" width="2.78" height="23.04" transform="translate(480.02 -329.24) rotate(45.66)"/><path class="cls-5" d="M617.07,419.13h0a2.48,2.48,0,0,1,0-3.51l9.71-9.48a2.48,2.48,0,0,1,3.51,0h0a2.48,2.48,0,0,1-.05,3.51l-9.7,9.48A2.48,2.48,0,0,1,617.07,419.13Z"/><path class="cls-5" d="M1439.61,1061.92h0a5.54,5.54,0,0,1-5-3.48L1304.88,663.56c-.64-1.93.59-3.51,2.74-3.52h0a5.53,5.53,0,0,1,5.05,3.48l129.69,394.87C1443,1060.33,1441.77,1061.9,1439.61,1061.92Z"/><path class="cls-5" d="M1544.14,1061.31h0a5.53,5.53,0,0,1-5.05-3.48L1409.4,663c-.64-1.94.59-3.51,2.75-3.53h0a5.54,5.54,0,0,1,5,3.48l129.69,394.88C1547.52,1059.72,1546.29,1061.3,1544.14,1061.31Z"/><path class="cls-5" d="M1431.59,718l-105,.61a5.26,5.26,0,0,1-4.76-3.29h0c-.6-1.81.57-3.31,2.59-3.32l105-.61a5.27,5.27,0,0,1,4.77,3.28h0C1434.78,716.47,1433.62,718,1431.59,718Z"/><path class="cls-5" d="M1454.24,786.92l-105,.61a5.25,5.25,0,0,1-4.77-3.28h0c-.59-1.82.57-3.31,2.6-3.33l105-.6a5.24,5.24,0,0,1,4.76,3.28h0C1457.43,785.42,1456.26,786.91,1454.24,786.92Z"/><path class="cls-5" d="M1476.05,853.32l-105,.61a5.25,5.25,0,0,1-4.77-3.28h0c-.59-1.82.57-3.31,2.6-3.32l105-.61a5.25,5.25,0,0,1,4.76,3.28h0C1479.24,851.82,1478.07,853.31,1476.05,853.32Z"/><path class="cls-5" d="M1500.6,928.08l-105,.61a5.26,5.26,0,0,1-4.77-3.29h0c-.59-1.81.57-3.31,2.6-3.32l105-.61a5.25,5.25,0,0,1,4.76,3.28h0C1503.79,926.57,1502.62,928.07,1500.6,928.08Z"/><path class="cls-5" d="M1526.29,1006.32l-105,.61a5.26,5.26,0,0,1-4.76-3.28h0c-.6-1.82.57-3.32,2.6-3.33l104.95-.6a5.24,5.24,0,0,1,4.77,3.28h0C1529.49,1004.81,1528.32,1006.31,1526.29,1006.32Z"/><path class="cls-5" d="M1300.35,482.7h0a1.53,1.53,0,0,1-1.79-1.2l-1.68-8.68a1.53,1.53,0,0,1,1.21-1.78h0a1.52,1.52,0,0,1,1.78,1.2l1.68,8.68A1.52,1.52,0,0,1,1300.35,482.7Z"/><rect class="cls-5" x="1295.95" y="456.29" width="1.05" height="12.77" transform="translate(-64.29 254.75) rotate(-10.95)"/><path class="cls-6" d="M1295.77,385.72s-1-8.64-3.08-11.94-10-5.42-10.51-4.94c-1.55,1.5,4.58,6.81,4.82,8.76s-3.11.6-1.5,4.42c1.36,3.22,5.83,7.39,5.83,7.39Z"/><path class="cls-8" d="M1292,384.75c2.88-2.26,3.5-2.22,3.5-2.22s26.69,23.13,29.28,25.18,42.69,13.69,42.69,13.69L1373.8,454s-54.24-26.2-60.72-31.54c-10.71-8.84-24.23-33.56-24.23-33.56A10.23,10.23,0,0,1,1292,384.75Z"/><path class="cls-5" d="M1368.29,697.92s-.46,11.14-2.6,13.85l-29.75.17c.21-1.15.33-3.8,4.45-4.52a20,20,0,0,0,14.45-11.4C1358.15,688.79,1368.29,697.92,1368.29,697.92Z"/><path class="cls-5" d="M1426.67,696.32s2.07,14.79-.74,15c-.38,0-12,.22-17,.31-5.91.1-15.63-.11-15.63-.11a1.55,1.55,0,0,1-1.4-2.33,6.21,6.21,0,0,1,4.47-2.86c5.18-1,13.81-4.81,16.84-11.73C1416.37,687.36,1426.67,696.32,1426.67,696.32Z"/><path class="cls-5" d="M1352.82,544.7s8.27,28.95,32,79.21,24.73,74.5,24.73,74.5a21,21,0,0,0,8.35.76,22.48,22.48,0,0,0,8.79-2.85s-1.54-59.83-12.73-85.2-13.48-94.78-13.48-94.78Z"/><path class="cls-7" d="M1339.54,519.8a721.27,721.27,0,0,0,7.1,99.85c7.75,55,4.12,80.63,4.12,80.63s2.06,1.49,8.38,1.47c7.4,0,11.2-3.09,11.2-3.09s11.09-55,7.91-82.6,15.2-94.52,15.2-94.52Z"/><path class="cls-6" d="M1376.19,414.91l-8.76,6.49-12.66-2.67c.17-1.15,1-5.94,1.77-10.27,0-.26.09-.51.13-.76.66-3.69,1.22-6.86,1.22-6.86l11.82-5.89,4.41-2.2c0,.08-.34,4.09-.38,4.68A37.84,37.84,0,0,0,1376.19,414.91Z"/><path class="cls-4" d="M1401.28,525.33c-2.86,13.1-64.17,7.35-63.37-.64,0-.27.19-4,.41-9,.47-10.79,1.18-27.66,1.27-29v-.07c1.11-11.14,2.17-22,2.24-29.14a100.81,100.81,0,0,1,2-18.21c1-5.28,2.32-10.08,3.43-13.82a15.29,15.29,0,0,1,9-9.82c.49-.2,1-.37,1.48-.52,7.22-2.09,17.2-4.68,19.91-3.89,7.32,2.16,12.77,15.06,16.62,31.5C1401.49,473.57,1403.15,516.79,1401.28,525.33Z"/><path class="cls-9" d="M1372.85,397.61c-2.6,5-12.27,9.27-16.31,10.85,0-.26.09-.51.13-.76.66-3.69,1.22-6.86,1.22-6.86l11.82-5.89C1372.33,394.91,1373.92,395.57,1372.85,397.61Z"/><path class="cls-6" d="M1352.14,400.15s21.34,6.65,25.28-6.7,9.34-21.48-4.11-26.29-17.62-.5-20,3.63S1346.7,398.07,1352.14,400.15Z"/><path class="cls-5" d="M1354.13,369.51s1.36,15.53,4.57,14.86,6.13-1.18,5.66,3.5-4.92,10.09,5,10.92,24.13-24.7,21.41-29.54C1382.9,355.3,1342.79,352.49,1354.13,369.51Z"/><path class="cls-8" d="M1338.32,515.73c.47-10.79,1.18-27.66,1.27-29v-.07L1375.81,465S1377.21,515.58,1338.32,515.73Z"/><path class="cls-6" d="M1309.54,470.42s-7.36-5-8.76-5.42-6-.9-6.19-.54-.84,1.46,0,1.84,1.8.24,1.5.5-3.31-1.17-4,.37-1.31,6.79,2.23,8.38,12.24.15,12.87.34C1312.48,477.44,1309.54,470.42,1309.54,470.42Z"/><path class="cls-4" d="M1309.47,469.07s35.92,6.11,39.1,4.56c5.08-2.48-2-38.92-2-38.92s-.3-8.26,9.35-10.21c8.38-1.69,16.47,4.59,16.47,4.59s7.36,6.58,6.42,13.88c-2.09,16.19-5.33,49.1-16.15,54.15-14,6.51-54.37-18.05-54.37-18.05a7.05,7.05,0,0,1-1.15-4.7A11,11,0,0,1,1309.47,469.07Z"/><path class="cls-6" d="M1285.33,381.58s-2.3-4.57-2.67-5.43.53-.67,1.41-.19,2.1,3.13,3.46,2.81C1288.61,378.52,1285.33,381.58,1285.33,381.58Z"/></g></g></svg>