<svg xmlns="http://www.w3.org/2000/svg" viewBox="0 0 273.8 45"><defs><style>.cls-1{fill:#43a1f6;}.cls-2{fill:#151f2c;}</style></defs><g id="Layer_2" data-name="Layer 2"><g id="_ëîé_1" data-name="‘ëîé_1"><g id="logo"><path class="cls-1" d="M134.41,33.19v6.44H110.22V5.45h7.48V33.19Z"/><path class="cls-2" d="M156.53,4.63a15.79,15.79,0,0,1,12.12,5q4.64,5,4.64,13t-4.64,12.93a15.91,15.91,0,0,1-12.16,4.92q-7.59,0-12.24-4.92t-4.66-12.93q0-8.11,4.63-13T156.53,4.63Zm-.09,6.15A8.16,8.16,0,0,0,149.69,14a13.25,13.25,0,0,0-2.52,8.49c0,3.68.84,6.56,2.5,8.64a8.42,8.42,0,0,0,6.86,3.17,8,8,0,0,0,6.72-3.17c1.64-2.11,2.45-5,2.45-8.64s-.83-6.42-2.49-8.52A8.21,8.21,0,0,0,156.44,10.78Z"/><path class="cls-2" d="M211.25,21.15V39.63H206.5l-.72-3.89a12.59,12.59,0,0,1-10.27,4.7,15,15,0,0,1-11.62-4.94q-4.45-4.95-4.46-12.82t4.7-12.93a15.83,15.83,0,0,1,12.1-5A15.17,15.17,0,0,1,206.12,8a12.79,12.79,0,0,1,4.7,8.66h-7.25a6.6,6.6,0,0,0-2.49-4.17,7.92,7.92,0,0,0-5-1.49,8.13,8.13,0,0,0-6.72,3.09C187.78,16.18,187,19,187,22.68s.82,6.6,2.47,8.67a8.38,8.38,0,0,0,6.93,3.09,8,8,0,0,0,5.76-2.13,7.79,7.79,0,0,0,2.4-5.6H196.9V21.15Z"/><path class="cls-1" d="M233.33,23.5v6.09H218.89V23.5Z"/><path class="cls-1" d="M257.05,4.63a15.82,15.82,0,0,1,12.12,5q4.62,5,4.63,13t-4.63,12.93A16,16,0,0,1,257,40.44q-7.59,0-12.24-4.92T240.1,22.59q0-8.11,4.63-13T257.05,4.63Zm-.1,6.15A8.14,8.14,0,0,0,250.21,14a13.25,13.25,0,0,0-2.52,8.49q0,5.52,2.49,8.64a8.44,8.44,0,0,0,6.87,3.17,8.05,8.05,0,0,0,6.72-3.17q2.44-3.16,2.44-8.64t-2.49-8.52A8.21,8.21,0,0,0,257,10.78Z"/><rect class="cls-1" width="41" height="41"/><rect class="cls-2" x="20" y="20" width="25" height="25"/></g></g></g></svg>